<svg width="127" height="28" viewBox="0 0 127 28" fill="none" xmlns="http://www.w3.org/2000/svg">
<g clip-path="url(#clip0_1303_14969)">
<path d="M32.9499 22.9634H30.9238V9.3689H32.9499V10.3293C33.7389 9.53964 34.656 9.13415 35.6797 9.13415C36.7033 9.13415 37.8976 9.60366 38.6654 10.4787C39.4545 11.3537 39.8597 12.4634 39.8597 13.8506C39.8597 15.2378 39.4545 16.2409 38.6654 17.1159C37.8763 17.9909 36.9166 18.3963 35.7223 18.3963C34.528 18.3963 33.7816 17.9909 32.9499 17.1585V22.9634ZM37.791 13.8293C37.791 12.997 37.5564 12.314 37.1085 11.7591C36.6394 11.2043 36.0422 10.9695 35.3598 10.9695C34.6773 10.9695 34.0162 11.247 33.5683 11.7591C33.0991 12.2713 32.8859 12.9543 32.8859 13.7866C32.8859 14.6189 33.1205 15.3018 33.5683 15.814C34.0375 16.3262 34.6347 16.6037 35.3598 16.6037C36.0849 16.6037 36.6607 16.3262 37.1085 15.814C37.5777 15.2591 37.791 14.6189 37.791 13.8293Z" fill="#535252"/>
<path d="M41.5229 9.3689H43.549V10.1585C43.9115 9.79573 44.2314 9.51829 44.5727 9.3689C44.8499 9.24086 45.2125 9.13415 45.639 9.13415C46.0655 9.13415 46.748 9.32622 47.3025 9.64634L46.3854 11.4817C46.0229 11.2043 45.5963 11.0762 45.2764 11.0762C44.1675 11.0762 43.613 11.9085 43.613 13.5732V18.1402H41.5869V9.3689H41.5229Z" fill="#535252"/>
<path d="M54.3402 9.3689H56.3662V18.1829H54.3402V17.2652C53.5084 18.0549 52.5914 18.4177 51.6317 18.4177C50.672 18.4177 49.4137 17.9482 48.646 17.0732C47.8569 16.1982 47.4517 15.0457 47.4517 13.7012C47.4517 12.3567 47.8569 11.311 48.646 10.436C49.435 9.56098 50.3947 9.09146 51.589 9.09146C52.7833 9.09146 53.5297 9.49695 54.3615 10.3293V9.3689H54.3402ZM49.5417 13.7439C49.5417 14.5762 49.7763 15.2591 50.2241 15.814C50.6933 16.3689 51.2905 16.6037 51.9729 16.6037C52.6554 16.6037 53.3165 16.3262 53.807 15.814C54.2762 15.2591 54.4894 14.6189 54.4894 13.7866C54.4894 12.9543 54.2549 12.2713 53.807 11.7591C53.3378 11.247 52.7407 10.9695 52.0156 10.9695C51.2904 10.9695 50.736 11.247 50.2668 11.7591C49.7549 12.314 49.5203 12.9543 49.5203 13.7439" fill="#535252"/>
<path d="M65.302 9.77439V12.5061C64.8328 11.9512 64.4276 11.5457 64.065 11.3537C63.7025 11.1189 63.276 11.0335 62.7641 11.0335C61.975 11.0335 61.3779 11.311 60.8661 11.8232C60.3542 12.378 60.1196 13.0183 60.1196 13.8506C60.1196 14.6829 60.3542 15.3659 60.8661 15.878C61.3779 16.3902 61.975 16.6677 62.7641 16.6677C63.5532 16.6677 63.6812 16.5823 64.065 16.3476C64.4276 16.1555 64.8541 15.75 65.366 15.1524V17.8201C64.5342 18.2256 63.7025 18.4604 62.8708 18.4604C61.5272 18.4604 60.3755 17.9909 59.4585 17.1159C58.5415 16.2409 58.0723 15.1311 58.0723 13.8506C58.0723 12.5701 58.5415 11.4604 59.4585 10.5213C60.3755 9.60366 61.5272 9.17683 62.8708 9.17683C63.7451 9.13415 64.5342 9.3689 65.3233 9.77439" fill="#535252"/>
<path d="M68.9061 11.247V18.1189H66.8588V11.247H65.9844V9.3689H66.8588V6.125H68.9061V9.3689H70.463V11.247H68.9061Z" fill="#535252"/>
<path d="M71.103 5.71951C71.103 5.35671 71.231 5.07927 71.4656 4.80183C71.7428 4.52439 72.0201 4.43902 72.3826 4.43902C72.7452 4.43902 73.0651 4.56707 73.2997 4.80183C73.5769 5.03659 73.6622 5.35671 73.6622 5.71951C73.6622 6.08232 73.5343 6.40244 73.2997 6.6372C73.0651 6.91463 72.7452 7 72.3826 7C72.0201 7 71.7002 6.87195 71.4656 6.6372C71.1883 6.40244 71.103 6.08232 71.103 5.71951ZM73.4063 18.1616H71.3803V9.34756H73.4063V18.1616Z" fill="#535252"/>
<path d="M82.3635 9.77439V12.5061C81.8943 11.9512 81.4891 11.5457 81.1266 11.3537C80.764 11.1189 80.3375 11.0335 79.847 11.0335C79.0579 11.0335 78.4607 11.311 77.9489 11.8232C77.4371 12.378 77.2025 13.0183 77.2025 13.8506C77.2025 14.6829 77.4371 15.3659 77.9489 15.878C78.4607 16.3902 79.0579 16.6677 79.847 16.6677C80.6361 16.6677 80.764 16.5823 81.1266 16.3476C81.4891 16.1555 81.9157 15.75 82.4275 15.1524V17.8201C81.5958 18.2256 80.764 18.4604 79.9323 18.4604C78.5887 18.4604 77.4371 17.9909 76.52 17.1159C75.603 16.2409 75.1338 15.1311 75.1338 13.8506C75.1338 12.5701 75.603 11.4604 76.52 10.5213C77.4371 9.60366 78.5887 9.17683 79.9323 9.17683C80.8067 9.13415 81.6384 9.3689 82.3848 9.77439" fill="#535252"/>
<path d="M91.8963 14.2561H85.5837C85.6263 15.0031 85.8609 15.5366 86.2661 15.9634C86.6713 16.3689 87.2258 16.6037 87.8869 16.6037C88.5481 16.6037 88.804 16.4543 89.1239 16.2409C89.4438 16.0061 89.8063 15.5579 90.2329 14.8963L91.939 15.8567C91.6618 16.3262 91.3845 16.689 91.1073 17.0091C90.83 17.3293 90.5101 17.6067 90.1476 17.7988C89.8277 18.0335 89.4651 18.1616 89.0386 18.2683C88.676 18.3537 88.2068 18.3963 87.759 18.3963C86.4581 18.3963 85.4131 17.9909 84.624 17.1585C83.8349 16.3262 83.4297 15.1738 83.4297 13.7866C83.4297 12.3994 83.7922 11.247 84.5813 10.4146C85.3704 9.58232 86.3728 9.13415 87.6737 9.13415C88.9746 9.13415 89.977 9.53964 90.766 10.372C91.5125 11.2043 91.875 12.314 91.875 13.7866L91.9177 14.2561H91.8963ZM89.7637 12.5915C89.4864 11.5244 88.804 10.9695 87.7377 10.9695C86.6713 10.9695 87.2685 11.0122 87.0552 11.0549C86.8206 11.1402 86.65 11.247 86.4581 11.375C86.2661 11.5031 86.1382 11.6951 85.9889 11.8872C85.8609 12.0793 85.7543 12.2927 85.7116 12.5701H89.7637V12.5915Z" fill="#535252"/>
<path d="M98.5288 10.8841L96.8654 11.7591C96.5881 11.2043 96.2682 10.9268 95.9057 10.9268C95.5431 10.9268 95.5858 10.9695 95.4365 11.1189C95.3085 11.247 95.2445 11.3963 95.2445 11.5884C95.2445 11.9085 95.6071 12.2713 96.3962 12.6128C97.4625 13.0823 98.1876 13.4878 98.5715 13.8933C98.934 14.2561 99.126 14.811 99.126 15.4512C99.126 16.0915 98.8061 17.0091 98.2089 17.564C97.6118 18.1189 96.8654 18.3963 95.991 18.3963C94.5194 18.3963 93.4531 17.6494 92.856 16.2195L94.6047 15.4299C94.8393 15.8354 95.0099 16.1128 95.1592 16.2195C95.3938 16.4543 95.7137 16.5396 96.0336 16.5396C96.7161 16.5396 97.0573 16.2195 97.0573 15.622C97.0573 15.0244 96.7801 14.939 96.2682 14.5976C96.0763 14.5122 95.863 14.4055 95.6711 14.3201C95.4791 14.2348 95.2659 14.128 95.0313 14.0427C94.4341 13.7652 94.0076 13.4451 93.7943 13.1677C93.4744 12.8049 93.3251 12.3354 93.3251 11.7378C93.3251 11.1402 93.6024 10.3506 94.1142 9.83841C94.6687 9.32622 95.3085 9.09146 96.0549 9.09146C97.1639 9.09146 98.0383 9.68902 98.5502 10.8415" fill="#535252"/>
<path d="M102.496 9.3689V14.4055C102.496 15.8781 103.05 16.5823 104.202 16.5823C105.354 16.5823 105.908 15.8354 105.908 14.4055V9.3689H107.934V14.4482C107.934 15.1311 107.849 15.7287 107.657 16.2835C107.465 16.7531 107.188 17.1585 106.783 17.5213C106.1 18.1189 105.226 18.3963 104.159 18.3963C103.093 18.3963 102.219 18.1189 101.536 17.5213C101.131 17.1585 100.79 16.7317 100.662 16.2835C100.47 15.8781 100.427 15.2591 100.427 14.4482V9.3689H102.496Z" fill="#535252"/>
<path d="M109.768 5.71951C109.768 5.35671 109.896 5.07927 110.131 4.80183C110.408 4.52439 110.685 4.43902 111.048 4.43902C111.41 4.43902 111.73 4.56707 111.965 4.80183C112.242 5.03659 112.327 5.35671 112.327 5.71951C112.327 6.08232 112.199 6.40244 111.965 6.6372C111.73 6.91463 111.41 7 111.048 7C110.685 7 110.365 6.87195 110.131 6.6372C109.896 6.40244 109.768 6.08232 109.768 5.71951ZM112.114 18.1616H110.088V9.34756H112.114V18.1616Z" fill="#535252"/>
<path d="M116.315 11.247V18.1189H114.289V11.247H113.415V9.3689H114.289V6.125H116.315V9.3689H117.894V11.247H116.315Z" fill="#535252"/>
<path d="M126.957 14.2561H120.645C120.687 15.0031 120.922 15.5366 121.327 15.9634C121.732 16.3689 122.287 16.6037 122.948 16.6037C123.609 16.6037 123.865 16.4543 124.185 16.2409C124.505 16.0061 124.867 15.5579 125.294 14.8963L127 15.8567C126.723 16.3262 126.445 16.689 126.168 17.0091C125.891 17.3293 125.571 17.6067 125.208 17.7988C124.889 18.0335 124.526 18.1616 124.099 18.2683C123.737 18.3537 123.268 18.3963 122.799 18.3963C121.519 18.3963 120.453 17.9909 119.664 17.1585C118.874 16.3262 118.469 15.1738 118.469 13.7866C118.469 12.3994 118.832 11.247 119.621 10.4146C120.41 9.58232 121.412 9.13415 122.713 9.13415C124.014 9.13415 125.017 9.53964 125.806 10.372C126.552 11.2043 126.915 12.314 126.915 13.7866L126.957 14.2561ZM124.889 12.5915C124.611 11.5244 123.929 10.9695 122.863 10.9695C121.796 10.9695 122.393 11.0122 122.18 11.0549C121.945 11.1402 121.775 11.247 121.583 11.375C121.391 11.5031 121.263 11.6951 121.114 11.8872C120.964 12.0793 120.879 12.2927 120.836 12.5701H124.889V12.5915Z" fill="#535252"/>
<path d="M9.25586 23.0061C9.25586 25.4604 11.2819 27.4878 13.7344 27.4878C16.187 27.4878 18.213 25.4604 18.213 23.0061V18.2043H9.27719V23.0061H9.25586Z" fill="#9ACB44"/>
<path d="M13.7344 0C11.2819 0 9.25586 2.02744 9.25586 4.48171V9.28354H18.1917V4.48171C18.1917 2.02744 16.1657 0 13.7131 0" fill="#9ACB44"/>
<path d="M4.47859 9.2622C2.02603 9.2622 0 11.2896 0 13.7439C0 16.1982 2.02603 18.2256 4.47859 18.2256H9.27708V9.28354H4.47859V9.2622Z" fill="#5DCAE9"/>
<path d="M22.9899 9.26219H18.1914V18.2043H22.9899C25.4425 18.2043 27.4685 16.1768 27.4685 13.7226C27.4685 11.2683 25.4425 9.24085 22.9899 9.24085" fill="#5DCAE9"/>
<path d="M18.1917 9.2622H9.25586V18.2043H18.1917V9.2622Z" fill="#329846"/>
</g>
<defs>
<clipPath id="clip0_1303_14969">
<rect width="127" height="28" fill="white"/>
</clipPath>
</defs>
</svg>
